<svg width="129" height="40" viewBox="0 0 129 40" fill="none" xmlns="http://www.w3.org/2000/svg">
<g clip-path="url(#clip0_2629_282)">
<path d="M68.1002 10.05C68.1002 11.4915 66.9437 12.6527 65.508 12.6527C64.0722 12.6527 62.9157 11.4915 62.9157 10.05C62.9157 8.60861 64.0324 7.44745 65.508 7.44745C66.9836 7.48749 68.1002 8.64865 68.1002 10.05ZM57.4121 15.2953C57.4121 15.5355 57.4121 15.9359 57.4121 15.9359C57.4121 15.9359 56.1758 14.3343 53.5436 14.3343C49.1966 14.3343 45.8067 17.6577 45.8067 22.2623C45.8067 26.8268 49.1567 30.1902 53.5436 30.1902C56.2156 30.1902 57.4121 28.5485 57.4121 28.5485V29.2292C57.4121 29.5495 57.6514 29.7898 57.9704 29.7898H61.2008V14.7347C61.2008 14.7347 58.2496 14.7347 57.9704 14.7347C57.6514 14.7347 57.4121 15.015 57.4121 15.2953ZM57.4121 24.9449C56.8139 25.8258 55.6174 26.5866 54.1817 26.5866C51.6293 26.5866 49.6751 24.985 49.6751 22.2623C49.6751 19.5395 51.6293 17.9379 54.1817 17.9379C55.5776 17.9379 56.8537 18.7387 57.4121 19.5796V24.9449ZM63.5937 14.7347H67.4223V29.7898H63.5937V14.7347ZM120.783 14.3343C118.151 14.3343 116.915 15.9359 116.915 15.9359V7.48749H113.086V29.7898C113.086 29.7898 116.037 29.7898 116.317 29.7898C116.636 29.7898 116.875 29.5095 116.875 29.2292V28.5485C116.875 28.5485 118.111 30.1902 120.743 30.1902C125.09 30.1902 128.48 26.8268 128.48 22.2623C128.48 17.6977 125.09 14.3343 120.783 14.3343ZM120.145 26.5465C118.67 26.5465 117.513 25.7858 116.915 24.9049V19.5395C117.513 18.7387 118.789 17.8979 120.145 17.8979C122.698 17.8979 124.652 19.4995 124.652 22.2222C124.652 24.9449 122.698 26.5465 120.145 26.5465ZM111.092 20.8609V29.8298H107.264V21.3013C107.264 18.8188 106.466 17.8178 104.312 17.8178C103.156 17.8178 101.959 18.4184 101.202 19.2993V29.7898H97.373V14.7347H100.404C100.723 14.7347 100.962 15.015 100.962 15.2953V15.9359C102.079 14.7748 103.555 14.3343 105.03 14.3343C106.705 14.3343 108.101 14.8148 109.218 15.7758C110.574 16.8969 111.092 18.3383 111.092 20.8609ZM88.0807 14.3343C85.4485 14.3343 84.2122 15.9359 84.2122 15.9359V7.48749H80.3836V29.7898C80.3836 29.7898 83.3348 29.7898 83.614 29.7898C83.9331 29.7898 84.1723 29.5095 84.1723 29.2292V28.5485C84.1723 28.5485 85.4087 30.1902 88.0408 30.1902C92.3879 30.1902 95.7778 26.8268 95.7778 22.2623C95.8177 17.6977 92.4278 14.3343 88.0807 14.3343ZM87.4426 26.5465C85.967 26.5465 84.8104 25.7858 84.2122 24.9049V19.5395C84.8104 18.7387 86.0866 17.8979 87.4426 17.8979C89.995 17.8979 91.9492 19.4995 91.9492 22.2222C91.9492 24.9449 89.995 26.5465 87.4426 26.5465ZM77.0735 14.3343C78.2301 14.3343 78.8283 14.5345 78.8283 14.5345V18.0981C78.8283 18.0981 75.6378 17.017 73.6437 19.2993V29.8298H69.8151V14.7347C69.8151 14.7347 72.7663 14.7347 73.0455 14.7347C73.3646 14.7347 73.6038 15.015 73.6038 15.2953V15.9359C74.3217 15.0951 75.8771 14.3343 77.0735 14.3343ZM37.312 28.4284C37.1126 27.9479 36.9132 27.4274 36.7138 26.987C36.3947 26.2663 36.0757 25.5856 35.7965 24.9449L35.7566 24.9049C33.0048 18.8989 30.0536 12.8128 26.9429 6.80681L26.8232 6.56657C26.5042 5.96597 26.1851 5.32533 25.8661 4.68468C25.4673 3.96396 25.0685 3.2032 24.4304 2.48248C23.1542 0.880881 21.3196 0 19.3655 0C17.3714 0 15.5767 0.880881 14.2607 2.4024C13.6624 3.12312 13.2238 3.88388 12.8249 4.6046C12.5059 5.24525 12.1868 5.88589 11.8678 6.48649L11.7481 6.72673C8.6773 12.7327 5.68621 18.8188 2.93441 24.8248L2.89453 24.9049C2.61536 25.5455 2.29631 26.2262 1.97726 26.9469C1.77785 27.3874 1.57845 27.8679 1.37904 28.3884C0.860587 29.8699 0.701063 31.2713 0.900469 32.7127C1.33916 35.7157 3.33322 38.2382 6.08502 39.3594C7.12193 39.7998 8.19872 40 9.3154 40C9.63444 40 10.0333 39.96 10.3523 39.9199C11.6684 39.7598 13.0243 39.3193 14.3404 38.5586C15.9756 37.6376 17.5309 36.3163 19.2857 34.3944C21.0405 36.3163 22.6357 37.6376 24.231 38.5586C25.547 39.3193 26.903 39.7598 28.2191 39.9199C28.5381 39.96 28.9369 40 29.256 40C30.3727 40 31.4893 39.7998 32.4864 39.3594C35.278 38.2382 37.2322 35.6757 37.6709 32.7127C37.99 31.3113 37.8304 29.9099 37.312 28.4284ZM19.3256 30.5105C17.172 27.7878 15.7761 25.2252 15.2976 23.0631C15.0982 22.1421 15.0583 21.3413 15.1779 20.6206C15.2577 19.98 15.497 19.4194 15.816 18.9389C16.5738 17.8579 17.85 17.1772 19.3256 17.1772C20.8012 17.1772 22.1173 17.8178 22.8351 18.9389C23.1542 19.4194 23.3934 19.98 23.4732 20.6206C23.5929 21.3413 23.553 22.1822 23.3536 23.0631C22.875 25.1852 21.4792 27.7477 19.3256 30.5105ZM35.2382 32.3924C34.959 34.4745 33.5631 36.2763 31.609 37.0771C30.6518 37.4775 29.6149 37.5976 28.578 37.4775C27.581 37.3574 26.5839 37.037 25.547 36.4364C24.1113 35.6356 22.6756 34.3944 21.0006 32.5526C23.6327 29.3093 25.228 26.3463 25.8262 23.7037C26.1054 22.4625 26.1453 21.3413 26.0256 20.3003C25.8661 19.2993 25.5072 18.3784 24.9488 17.5776C23.7125 15.7758 21.6387 14.7347 19.3256 14.7347C17.0125 14.7347 14.9386 15.8158 13.7023 17.5776C13.144 18.3784 12.7851 19.2993 12.6255 20.3003C12.466 21.3413 12.5059 22.5025 12.8249 23.7037C13.4232 26.3463 15.0583 29.3493 17.6506 32.5926C16.0154 34.4344 14.5398 35.6757 13.1041 36.4765C12.0672 37.0771 11.0702 37.3974 10.0731 37.5175C8.99635 37.6376 7.95944 37.4775 7.04217 37.1171C5.08799 36.3163 3.69215 34.5145 3.41298 32.4324C3.29334 31.4314 3.3731 30.4304 3.77191 29.3093C3.89156 28.9089 4.09096 28.5085 4.29037 28.028C4.56954 27.3874 4.88859 26.7067 5.20763 26.026L5.24752 25.9459C7.99932 19.98 10.9505 13.8939 14.0214 7.96797L14.141 7.72773C14.4601 7.12713 14.7791 6.48649 15.0982 5.88589C15.4172 5.24524 15.7761 4.64464 16.2148 4.12412C17.0523 3.16316 18.169 2.64264 19.4053 2.64264C20.6416 2.64264 21.7583 3.16316 22.5958 4.12412C23.0345 4.64464 23.3934 5.24524 23.7125 5.88589C24.0315 6.48649 24.3506 7.12713 24.6696 7.72773L24.7893 7.96797C27.8203 13.9339 30.7715 20.02 33.5233 25.986V26.026C33.8423 26.6667 34.1215 27.3874 34.4405 28.028C34.6399 28.5085 34.8393 28.9089 34.959 29.3093C35.278 30.3503 35.3977 31.3514 35.2382 32.3924Z" fill="#74787C"/>
</g>
<defs>
<clipPath id="clip0_2629_282">
<rect width="127.66" height="40" fill="white" transform="translate(0.821289)"/>
</clipPath>
</defs>
</svg>
