<svg width="129" height="40" viewBox="0 0 129 40" fill="none" xmlns="http://www.w3.org/2000/svg">
<g clip-path="url(#clip0_2629_274)">
<path d="M16.6124 14.2727V18.5455H26.9237C26.65 20.9091 25.8287 22.7273 24.5512 23.9091C23.0912 25.3636 20.7187 27 16.6124 27C10.3161 27 5.38859 21.9091 5.38859 15.6364C5.38859 9.36364 10.2249 4.27273 16.6124 4.27273C19.9887 4.27273 22.5437 5.63636 24.3687 7.36364L27.38 4.36364C24.825 1.90909 21.3574 0 16.6124 0C7.9436 0 0.643555 7 0.643555 15.6364C0.643555 24.2727 7.9436 31.2727 16.6124 31.2727C21.2662 31.2727 24.825 29.7273 27.5625 26.9091C30.3913 24.0909 31.3038 20.0909 31.3038 16.9091C31.3038 15.9091 31.2125 15 31.1213 14.2727H16.6124Z" fill="#74787C"/>
<path d="M44.0785 10.7275C38.5122 10.7275 33.8584 15.0003 33.8584 20.8184C33.8584 26.6366 38.4209 30.9094 44.0785 30.9094C49.736 30.9094 54.2985 26.7275 54.2985 20.9094C54.2985 15.0003 49.736 10.7275 44.0785 10.7275ZM44.0785 27.0003C40.9759 27.0003 38.3297 24.4548 38.3297 20.9094C38.3297 17.273 40.9759 14.8184 44.0785 14.8184C47.181 14.8184 49.8273 17.273 49.8273 20.9094C49.8273 24.4548 47.181 27.0003 44.0785 27.0003Z" fill="#74787C"/>
<path d="M93.9929 13.0003H93.8104C92.8066 11.8184 90.8903 10.7275 88.4266 10.7275C83.3165 10.7275 78.9365 15.0912 78.9365 20.8184C78.9365 26.4548 83.3165 30.9094 88.4266 30.9094C90.8903 30.9094 92.8066 29.8184 93.8104 28.6366H93.9929V30.0912C93.9929 33.9094 91.8941 36.0003 88.6091 36.0003C85.8716 36.0003 84.2291 34.0912 83.4991 32.3639L79.6665 34.0003C80.7615 36.6366 83.7728 40.0003 88.7003 40.0003C93.9016 40.0003 98.3729 36.9094 98.3729 29.4548V11.273H94.1754V13.0003H93.9929ZM88.8828 27.0003C85.7803 27.0003 83.4991 24.3639 83.4991 20.9094C83.4991 17.3639 85.8716 14.8184 88.8828 14.8184C91.8941 14.8184 94.2666 17.4548 94.2666 21.0003C94.3579 24.4548 91.9854 27.0003 88.8828 27.0003Z" fill="#74787C"/>
<path d="M66.8001 10.7275C61.2339 10.7275 56.5801 15.0003 56.5801 20.8184C56.5801 26.6366 61.1426 30.9094 66.8001 30.9094C72.4577 30.9094 77.0202 26.7275 77.0202 20.9094C77.0202 15.0003 72.4577 10.7275 66.8001 10.7275ZM66.8001 27.0003C63.6976 27.0003 61.0514 24.4548 61.0514 20.9094C61.0514 17.273 63.6976 14.8184 66.8001 14.8184C69.9027 14.8184 72.5489 17.273 72.5489 20.9094C72.5489 24.4548 69.9027 27.0003 66.8001 27.0003Z" fill="#74787C"/>
<path d="M101.749 0.454102H106.129V30.9996H101.749V0.454102Z" fill="#74787C"/>
<path d="M119.634 27.0003C117.353 27.0003 115.802 26.0003 114.707 23.9094L128.303 18.3639L127.847 17.1821C127.026 14.9094 124.379 10.7275 119.178 10.7275C113.977 10.7275 109.597 14.8184 109.597 20.8184C109.597 26.4548 113.885 30.9094 119.634 30.9094C124.288 30.9094 126.934 28.0912 128.121 26.4548L124.653 24.1821C123.467 25.9094 121.916 27.0003 119.634 27.0003ZM119.36 14.5457C121.186 14.5457 122.737 15.4548 123.193 16.7275L114.068 20.5457C113.977 16.3639 117.079 14.5457 119.36 14.5457Z" fill="#74787C"/>
</g>
<defs>
<clipPath id="clip0_2629_274">
<rect width="127.66" height="40" fill="white" transform="translate(0.643555)"/>
</clipPath>
</defs>
</svg>
