<svg width="50" height="50" viewBox="0 0 50 50" fill="none" xmlns="http://www.w3.org/2000/svg">
<g clip-path="url(#clip0_2629_71)">
<path d="M49.0676 41.3875L40.0416 32.6289C39.4569 32.0614 38.6851 31.7573 37.8669 31.7679C37.5995 31.7719 37.3337 31.8107 37.0763 31.8833L33.0015 27.9293C36.2264 23.0514 36.8786 16.8508 34.744 11.4096L36.1422 9.23081C36.5028 9.31837 36.8724 9.36269 37.2434 9.36285C39.8259 9.36285 41.927 7.26177 41.927 4.67924C41.927 2.09681 39.8259 -0.00417249 37.2434 -0.00417249C34.661 -0.00417249 32.56 2.09681 32.56 4.67924C32.56 5.74799 32.9206 6.73354 33.5253 7.52261L33.0919 8.19819C32.7424 7.66009 32.3646 7.14094 31.9601 6.64292C28.9281 2.91234 24.6249 0.585868 19.843 0.0918239C15.061 -0.402123 10.3732 0.995537 6.64266 4.02748C2.912 7.05932 0.585342 11.3627 0.0913972 16.1445C-0.350106 20.4183 0.720693 24.6167 3.11766 28.1241C1.30067 28.7687 -0.0045011 30.5038 -0.0045011 32.539C-0.0045011 35.1215 2.09647 37.2226 4.67889 37.2226C6.85575 37.2226 8.69041 35.7296 9.21307 33.7139C11.322 34.8924 13.6685 35.6404 16.1439 35.8961C16.774 35.9613 17.4022 35.9935 18.0271 35.9935C21.5173 35.9934 24.895 34.9866 27.8159 33.0765L31.8542 36.9539C31.679 37.3551 31.5921 37.7892 31.5994 38.2268C31.6117 39.0445 31.9406 39.8073 32.5252 40.3746L41.5514 49.1334C42.1443 49.7085 42.9123 49.9947 43.6796 49.9947C44.4779 49.9947 45.2752 49.6848 45.8737 49.0682L49.1325 45.7098C50.3062 44.5003 50.2771 42.5616 49.0676 41.3875ZM37.2433 3.12084C38.1028 3.12084 38.802 3.81996 38.802 4.67934C38.802 5.53881 38.1028 6.23803 37.2433 6.23803C36.3839 6.23803 35.6848 5.53881 35.6848 4.67934C35.6848 3.81996 36.3839 3.12084 37.2433 3.12084ZM34.6062 33.8406L33.8912 34.5776L30.2978 31.1274C30.5556 30.8862 30.8055 30.6393 31.0462 30.3861L34.6062 33.8406ZM3.19979 16.4656C3.608 12.514 5.53055 8.95796 8.61346 6.45249C11.2902 4.27689 14.563 3.11976 17.9655 3.11976C18.4816 3.11976 19.0013 3.14642 19.5217 3.20023C23.4733 3.60853 27.0294 5.5311 29.5349 8.61392C30.1743 9.39999 30.7317 10.2493 31.1985 11.1486L25.7158 19.6921C25.2386 19.5324 24.7388 19.4509 24.2356 19.451C23.689 19.4505 23.1465 19.5461 22.633 19.7336L19.5596 16.4306C19.8753 15.7897 20.0391 15.0847 20.0384 14.3703C20.0384 11.7879 17.9374 9.68687 15.3549 9.68687C12.7724 9.68687 10.6715 11.7879 10.6715 14.3703C10.6715 15.4774 11.0585 16.4954 11.7031 17.2979L5.88924 26.6347C3.77626 23.6831 2.82352 20.1075 3.19979 16.4656ZM24.2357 22.5758C25.0951 22.5758 25.7943 23.2749 25.7943 24.1343C25.7943 24.9937 25.0951 25.693 24.2357 25.693C23.3763 25.693 22.6772 24.9937 22.6772 24.1343C22.6771 23.2749 23.3763 22.5758 24.2357 22.5758ZM13.7965 14.3702C13.7965 13.5108 14.4956 12.8117 15.355 12.8117C16.2144 12.8117 16.9136 13.5108 16.9136 14.3702C16.9136 15.2296 16.2144 15.9288 15.355 15.9288C14.4955 15.9289 13.7965 15.2297 13.7965 14.3702ZM4.67899 34.0977C3.81962 34.0977 3.1205 33.3985 3.1205 32.539C3.1205 31.6796 3.81962 30.9805 4.67899 30.9805C5.53836 30.9805 6.23758 31.6796 6.23758 32.539C6.23758 33.3985 5.53836 34.0977 4.67899 34.0977ZM18.0214 32.8682C17.5052 32.8682 16.9856 32.8415 16.4651 32.7877C13.2953 32.4603 10.3804 31.1574 8.05779 29.0638L14.3581 18.9459C14.6855 19.0174 15.0197 19.0535 15.3549 19.0537C16.0359 19.0542 16.7088 18.9052 17.3259 18.6173L20.2199 21.7273C19.7822 22.4538 19.5514 23.2861 19.5523 24.1343C19.5523 26.7168 21.6533 28.8179 24.2357 28.8179C26.8182 28.8179 28.9192 26.7168 28.9192 24.1343C28.9199 23.2455 28.6661 22.3751 28.1878 21.626L32.5299 14.8596C33.6628 20.1562 31.8571 25.8914 27.3734 29.5354C24.6967 31.711 21.424 32.8683 18.0214 32.8682ZM43.6788 46.843L34.7505 38.1793L37.9142 34.9189L46.8424 43.5826L43.6788 46.843Z" fill="black"/>
</g>
<defs>
<clipPath id="clip0_2629_71">
<rect width="50" height="50" fill="white"/>
</clipPath>
</defs>
</svg>
